#!OML:ASF G:\JayActor3\Patient Classification 1\Patient 1\Session 2\male.ASF
:FULLY-SPECIFIED
:DEGREES
2741
root 33.4508 16.9743 -6.3592 3065.82 -88.3598 -1623.52
lowerback -4.4202 1.16612 -0.609585
upperback 1.62824 1.64477 -1.58134
thorax 4.18925 0.817803 -1.15951
lowerneck -6.35246 -2.4032 -3.92607
upperneck -4.33754 -2.97999 7.44505
head -0.0878168 -1.47864 3.00476
rclavicle 1.0138e-014 3.97569e-015
rhumerus -35.2406 -6.73442 -85.999
rradius 19.5767
rwrist 4.75878
rhand -21.5624 4.55165
rfingers 7.12502
rthumb 4.83133 -25.3733
lclavicle 1.0138e-014 3.97569e-015
lhumerus -35.1449 19.8043 77.2076
lradius 22.4152
lwrist 5.32342
lhand -18.4637 16.5386
lfingers 7.12502
lthumb 7.82281 46.3739
rfemur -0.484173 -0.629411 19.9505
rtibia 50.1029
rfoot 4.46565 -9.99112
rtoes 17.5282
lfemur -13.7215 11.65 -25.0104
ltibia 18.3942
lfoot -5.01692 -2.53542
ltoes 6.99281
2742
root 33.3533 16.9702 -6.34395 3072.36 -88.1154 -1630.19
lowerback -4.37681 1.14775 -0.868723
upperback 1.67414 1.63666 -1.64143
thorax 4.20681 0.806932 -1.07751
lowerneck -6.3159 -2.32786 -3.87759
upperneck -4.27127 -2.88507 7.31503
head -0.0820987 -1.43076 2.95369
rclavicle 2.57426e-014 2.38542e-015
rhumerus -35.2343 -7.13485 -85.7291
rradius 19.578
rwrist 4.77085
rhand -21.6405 4.61246
rfingers 7.12502
rthumb 4.75591 -25.3142
lclavicle 2.57426e-014 2.38542e-015
lhumerus -34.6603 19.6038 77.4495
lradius 22.7164
lwrist 5.66421
lhand -18.5796 16.5375
lfingers 7.12502
lthumb 7.71094 46.3769
rfemur -1.55952 -0.343332 19.5464
rtibia 52.0881
rfoot 6.15982 -10.5303
rtoes 18.7016
lfemur -13.0689 12.0034 -25.2322
ltibia 18.1786
lfoot -5.31144 -2.73447
ltoes 6.88677
2743
root 33.2569 16.9655 -6.32854 3076.81 -87.8606 -1634.78
lowerback -4.33471 1.12502 -1.09644
upperback 1.72461 1.62071 -1.6975
thorax 4.23061 0.792827 -1.00956
lowerneck -6.28262 -2.25151 -3.82484
upperneck -4.19858 -2.78917 7.18074
head -0.0738037 -1.38231 2.9004
rclavicle -1.92821e-014 1.27222e-014
rhumerus -35.1988 -7.55643 -85.4617
rradius 19.593
rwrist 4.76738
rhand -21.6597 4.57716
rfingers 7.12502
rthumb 4.73738 -25.3499
lclavicle -1.92821e-014 1.27222e-014
lhumerus -34.1574 19.3677 77.704
lradius 23.0058
lwrist 5.97776
lhand -18.7053 16.5364
lfingers 7.12502
lthumb 7.58965 46.3802
rfemur -2.63385 -0.041271 19.1741
rtibia 53.9911
rfoot 7.93257 -11.0634
rtoes 19.7638
lfemur -12.426 12.3142 -25.4292
ltibia 17.9854
lfoot -5.61973 -2.88552
ltoes 6.78689
2744
root 33.1617 16.9601 -6.31298 3079.9 -87.6088 -1638.01
lowerback -4.28634 1.09627 -1.29595
upperback 1.77989 1.5947 -1.74845
thorax 4.25651 0.774311 -0.953032
lowerneck -6.25633 -2.17519 -3.76915
upperneck -4.11574 -2.69365 7.0379
head -0.0610816 -1.33382 2.84362
rclavicle 8.92046e-015 -9.93923e-015
rhumerus -35.1389 -7.97971 -85.2053
rradius 19.6253
rwrist 4.74001
rhand -21.6364 4.48993
rfingers 7.12502
rthumb 4.75984 -25.4366
lclavicle 8.92046e-015 -9.93923e-015
lhumerus -33.6384 19.099 77.9693
lradius 23.2806
lwrist 6.25835
lhand -18.8277 16.525
lfingers 7.12502
lthumb 7.4715 46.3731
rfemur -3.69632 0.273584 18.8345
rtibia 55.7985
rfoot 9.7749 -11.5938
rtoes 20.7414
lfemur -11.7864 12.5734 -25.6032
ltibia 17.8091
lfoot -5.94097 -2.98422
ltoes 6.60051
2745
root 33.0677 16.9543 -6.29742 3082.18 -87.3703 -1640.44
lowerback -4.22791 1.06062 -1.47366
upperback 1.83856 1.55772 -1.79459
thorax 4.28078 0.750788 -0.904788
lowerneck -6.23556 -2.10046 -3.71185
upperneck -4.02495 -2.60041 6.88873
head -0.0447123 -1.28629 2.78436
rclavicle -2.10712e-014 1.43125e-014
rhumerus -35.0776 -8.39832 -84.9614
rradius 19.7154
rwrist 4.69317
rhand -21.5501 4.36225
rfingers 7.12502
rthumb 4.84316 -25.5624
lclavicle -2.10712e-014 1.43125e-014
lhumerus -33.105 18.802 78.2419
lradius 23.5363
lwrist 6.49826
lhand -18.9382 16.4988
lfingers 7.12502
lthumb 7.36477 46.3506
rfemur -4.7392 0.592196 18.5253
rtibia 57.5011
rfoot 11.6441 -12.1213
rtoes 21.6742
lfemur -11.1473 12.7744 -25.7582
ltibia 17.6439
lfoot -6.26919 -3.0315
ltoes 6.37859
2746
root 32.975 16.9482 -6.28192 3083.88 -87.1481 -1642.29
lowerback -4.1574 1.01678 -1.63176
upperback 1.89929 1.50799 -1.83417
thorax 4.30078 0.721331 -0.861932
lowerneck -6.22547 -2.02525 -3.65322
upperneck -3.92194 -2.50669 6.72775
head -0.0227092 -1.23821 2.72088
rclavicle -2.44754e-014 5.1684e-015
rhumerus -35.0118 -8.78473 -84.7422
rradius 19.857
rwrist 4.60161
rhand -21.3959 4.1964
rfingers 7.12502
rthumb 4.99209 -25.7248
lclavicle -2.44754e-014 5.1684e-015
lhumerus -32.5596 18.4812 78.52
lradius 23.7724
lwrist 6.69574
lhand -19.024 16.4775
lfingers 7.12502
lthumb 7.28202 46.3322
rfemur -5.761 0.909357 18.2485
rtibia 59.0932
rfoot 13.3434 -12.5879
rtoes 22.2595
lfemur -10.5096 12.9133 -25.895
ltibia 17.4861
lfoot -6.6007 -3.02474
ltoes 6.11781
2747
root 32.8835 16.9417 -6.26658 3085.25 -86.9501 -1643.82
lowerback -4.07463 0.964269 -1.77393
upperback 1.96274 1.44505 -1.86713
thorax 4.31704 0.685623 -0.822334
lowerneck -6.22414 -1.951 -3.59443
upperneck -3.80886 -2.41425 6.55592
head 0.00404872 -1.19055 2.65377
rclavicle -7.28049e-015 1.59028e-015
rhumerus -34.939 -9.12626 -84.556
rradius 20.0451
rwrist 4.44166
rhand -21.2259 4.04653
rfingers 7.12502
rthumb 5.15624 -25.8707
lclavicle -7.28049e-015 1.59028e-015
lhumerus -31.9972 18.1293 78.8091
lradius 23.9849
lwrist 6.85676
lhand -19.11 16.4927
lfingers 7.12502
lthumb 7.19898 46.3503
rfemur -6.75471 1.21349 18.0026
rtibia 60.5722
rfoot 14.6648 -12.9474
rtoes 22.4443
lfemur -9.873 12.9867 -26.0163
ltibia 17.335
lfoot -6.9319 -2.96676
ltoes 5.81768
2748
root 32.793 16.935 -6.25141 3086.3 -86.7776 -1645.04
lowerback -3.98247 0.903787 -1.89735
upperback 2.02763 1.36968 -1.89093
thorax 4.32989 0.644137 -0.784782
lowerneck -6.22609 -1.87589 -3.53797
upperneck -3.68453 -2.32053 6.3745
head 0.0349126 -1.14206 2.58406
rclavicle 1.92324e-014 -2.5842e-014
rhumerus -34.8571 -9.41238 -84.4045
rradius 20.2706
rwrist 4.21815
rhand -21.0699 3.93008
rfingers 7.12502
rthumb 5.30683 -25.9835
lclavicle 1.92324e-014 -2.5842e-014
lhumerus -31.4234 17.7381 79.1141
lradius 24.1791
lwrist 6.98814
lhand -19.2081 16.5757
lfingers 7.12502
lthumb 7.10427 46.4365
rfemur -7.71698 1.49661 17.7915
rtibia 61.9372
rfoot 15.4286 -13.1649
rtoes 22.1412
lfemur -9.24073 12.9958 -26.1193
ltibia 17.1942
lfoot -7.26232 -2.85852
ltoes 5.4951
2749
root 32.7036 16.928 -6.23647 3087.1 -86.6352 -1646.01
lowerback -3.88804 0.835375 -2.00086
upperback 2.09381 1.28211 -1.90464
thorax 4.34323 0.597015 -0.748782
lowerneck -6.22724 -1.80137 -3.47839
upperneck -3.55727 -2.22764 6.18003
head 0.0665376 -1.0941 2.50966
rclavicle -1.01629e-014 -3.97569e-015
rhumerus -34.7559 -9.63983 -84.2903
rradius 20.5095
rwrist 3.92455
rhand -20.9858 3.89385
rfingers 7.12502
rthumb 5.38801 -26.0177
lclavicle -1.01629e-014 -3.97569e-015
lhumerus -30.8323 17.3225 79.4275
lradius 24.3399
lwrist 7.09735
lhand -19.2897 16.6779
lfingers 7.12502
lthumb 7.0255 46.5413
rfemur -8.65061 1.74587 17.6169
rtibia 63.1889
rfoot 15.5416 -13.1934
rtoes 21.3589
lfemur -8.62101 12.9384 -26.2032
ltibia 17.0705
lfoot -7.59375 -2.70059
ltoes 5.18319
